<svg id="eJewfm5TnEj1" fill="currentColor" xmlns="http://www.w3.org/2000/svg" xmlns:xlink="http://www.w3.org/1999/xlink" viewBox="0 0 24 24" shape-rendering="geometricPrecision" text-rendering="geometricPrecision"><style><![CDATA[#eJewfm5TnEj2_tr {animation: eJewfm5TnEj2_tr__tr 1500ms linear infinite normal forwards}@keyframes eJewfm5TnEj2_tr__tr { 0% {transform: translate(12px,12.000167px) rotate(0deg)} 100% {transform: translate(12px,12.000167px) rotate(360deg)}}]]></style><g id="eJewfm5TnEj2_tr" transform="translate(12,12.000167) rotate(0)"><path id="eJewfm5TnEj2" d="M12,6L12,7.790000C12,8.240000,12.540000,8.460000,12.850000,8.140000L15.640000,5.350000C15.840000,5.150000,15.840000,4.840000,15.640000,4.640000L12.850000,1.850000C12.540000,1.540000,12,1.760000,12,2.210000L12,4C7.580000,4,4,7.580000,4,12C4,13.040000,4.200000,14.040000,4.570000,14.950000C4.840000,15.620000,5.700000,15.800000,6.210000,15.290000C6.480000,15.020000,6.590000,14.610000,6.440000,14.250000C6.150000,13.560000,6,12.790000,6,12C6,8.690000,8.690000,6,12,6ZM17.790000,8.710000C17.520000,8.980000,17.410000,9.400000,17.560000,9.750000C17.840000,10.450000,18,11.210000,18,12C18,15.310000,15.310000,18,12,18L12,16.210000C12,15.760000,11.460000,15.540000,11.150000,15.860000L8.360000,18.650000C8.160000,18.850000,8.160000,19.160000,8.360000,19.360000L11.150000,22.150000C11.460000,22.460000,12,22.240000,12,21.800000L12,20C16.420000,20,20,16.420000,20,12C20,10.960000,19.800000,9.960000,19.430000,9.050000C19.160000,8.380000,18.300000,8.200000,17.790000,8.710000Z" transform="translate(-12,-12.000167)" fill="rgb(0,0,0)" stroke="none" stroke-width="1"/></g></svg>